<?xml version="1.0" encoding="UTF-8"?>
<svg id="Layer_2" data-name="Layer 2" xmlns="http://www.w3.org/2000/svg" viewBox="0 0 144.34 225.96">
  <g id="Layer_1-2" data-name="Layer 1">
    <path d="M142.34,45.84c2.26-7.29,2.6-18.47,1.05-25.94-.37-1.81-4.03-13.77-4.67-14.59-.14-.18-3.28-2.3-3.71-2.53-7.23-3.78-25.85-3.58-33.2-.08-8.42,4.01-11.96,12.91-16.88,20.08-1.56,2.27-4.15,5.34-6.48,7.12-.5.38-.63.97-1.5.74.03-.47.09-.94.14-1.4-.03.03-.05.06-.08.08-.55.57-1.21.97-1.92,1.23-.03,1.1-.08,2.07-.24,2.7-.27,1.13-2.27,2.68-1.91,4.38-1.21,1.1-4.11-6.12-5.49-2.25,1.74.76,4.98,8.09,7.02,6.53.64-.49.76-3.76,1.12-4.87,1.32-4.05,7.42-7.84,10.07-10.91,1.15-1.33,3.02-4.6,4.18-6.29,3.92-5.72,5.96-10.98,12.44-14.56,8.18-4.51,14.87-2.39,23.42-1.19.95.13,2.16-.43,3.34-.24,2.77.46,6.44,1.63,7.69,4.2,5.37,10.99,7.45,32.63.85,43.53-2.18,3.61-7.84,7.52-10.45,11.03-1.44,3.15.85,3.37.76,5.2-.07,1.36-1.89,4.1-1.98,6.11-.05,1.13.48,1.98.48,2.93,0,.74-1.24,5.76,1.23,5.24,1.88-.4,1.04-7.85,1.31-9.69.28-1.99,1.97-3.91,2-5.56.02-.82-2.11-1.16-1.48-3.38,5.28-5.49,10.56-10.09,12.89-17.61Z"/>
    <path d="M122.4,99.13c.23-.51.54-.97.91-1.38.07-1.34.18-2.67.42-3.97-.11-.25-.18-.42-.18-.46,0-.29.22-.7.53-1.16.32-1.26.76-2.5,1.35-3.69-.18-.27-.49-.51-1.01-.67-3.15-.98-2.04,1.18-2.78,2.77-.3.64-1.22.93-1.61,1.89-.95,2.35-.65,6.29-1.4,8.59-.49,1.5-4.61,7.35-5.8,9.18-3.35,5.13-7.82,10.41-11.09,15.38-7.3,11.07-5.92,15.44-7.31,27.66-.37,3.24-3.11,8.78-4.8,11.69-1.19,2.05-3.46,3.38-4.5,5.6-1.92-.51-3.29-1.45-5.41-1.03-1.61.32-3.5,3.42-5.76,2.26-1.3-.67-1.39-5.16-2.29-6.74-1.8-3.15-8.53-7.45-11.22-10.25-6.39-6.64-9.09-20.72-12.22-29.23-1.2-3.26-3.86-6.42-3.73-10,2.68,2.82,3.84,7.75,5.26,11.47,4.16,3.29,5.06-2.15,7.13-4.82-.9-4.69-.19-7.6-2.32-11.98-.5-1.04-2.33-3.23-2.49-4.02-.16-.83.51-1.59.21-2.64-.29-1.03-1.49-1.66-2.02-2.52-.38-.61-.21-1.82-.76-2.26-.37-.3-2.52.27-2.56.59-.52,4.3,3.39,6.84,2.4,11.32-.72,3.25-2.93.97-5.36,1.38-.78-7.95,2.46-15.26,4.47-22.78.05-1.18-.69-2.66-1.2-3.72-.33-.69-3-5.52-3.23-5.76-.86-.94-2.09-.5-2.45-.8-.3-.25-.06-1.58-.95-2.44-1.4-1.35-13.37-7.83-15.61-8.72-1.55-.61-3.66-.73-5.5-1.49C-5.09,56.1-2.24,7.78,27.25,7.65c6.4-.03,12.33.93,18.35,3.62,6.06,2.71,18.14,15.2,18.11,22.1,0,1.25-1.79,7.22-1.25,7.74.62-.1,2.11.23,2.45-.05.87-.72,1.13-8.89.82-10.46-.83-4.32-5.61-10.36-10.32-14.91-2.43-1.41-4.64-3.21-6.54-5.3-6.13-3.74-18.29-6.35-25.58-5.22C9.71,7.3.34,21.78.01,34.85c-.32,12.64,6.38,29.31,18.9,34.1,2.11.81,5,.78,6.57,1.42,2.02.81,10.62,6.4,12.52,7.95.65.53,1.01,1.76,1.48,2.02.8.46,2.05.03,2.42.33.14.11.31,1.45.73,2.02.84,1.17,2.48,3.12,3.05,4.44,1.83,4.23-.08,4.05-1.07,6.84-2.47,6.96-4.17,17.51-2.53,24.74.51,2.23,3.22,6.76,4.12,9.37,2.82,8.2,4.8,16.77,9.05,24.42,3.17,5.7,11.35,9.01,14.06,14.42,1.32,2.64,1.02,5.51,3.01,7.87-5.29,5.38-10.3,10.97-14.78,17.05-2.14,5.29-5.42,10.94-6.92,16.55-.66,2.47-.96,5.05-1.14,7.6,1.54.24.79-.41.98-1.25,2.68-12.14,10.08-27.59,20.22-35.22,1.29-.97,2.91-1.16,4.26-2l.31,3.51c-5.66,8.59-10.61,17.65-14.17,27.33-1.66,4.53-2.36,7-2.76,11.73-.17,2.06-1.95,5.62,1.14,5.89-1.18-7.81,2.27-16.21,5.41-23.31,2.06-4.67,4.59-9.08,7.25-13.21.63-.97,2.35-5.06,3.47-4.88.42.07.95.9,2.09.99,3.31.26,4.92-3.67,7-5.54.52.89.69,2.19.77,3.22.97,13.25-.2,21.11-2.64,33.87-.05.26-2.48,6.45-.38,4.37.27-.27.58-3.09.85-3.9,3.15-9.41,5.26-19.81,4.67-29.84-.35-5.9-3.61-12.93.47-17.98,3.17-3.93,5.58-7.09,7.24-12.24,1.51-4.7.34-10.01,1.04-14.72,2.02-13.59,16.98-27.88,23.72-39.58.6-1.04.65-2.33.97-3.4.21-.71-.31-.88,1-.74,0,.02,0,.04,0,.07ZM52.47,111.56c.19.14,1.57,3.82,1.5,4.49-.9.22-2.81-2.43-2.92-2.84-.29-1.07.8-2.11,1.42-1.65ZM81.57,177.38c-.3.75-.83,3.81-1.2,4.04-.96.58-2.29.3-1.93-1.18.33-1.37,1.41-1.2,1.77-1.73,1.36-2.05-.86-1.26-1.92-1.58-1.46-.44-.65-5.44,2.84-5.27,4.34.21,1.16,3.97.46,5.72Z"/>
    <path d="M97.23,113.87c-2.28,3.31-5.76,5.27-9.31,6.92-4.81,2.22-.61-6.22.1-6.64,2.05-1.23,2.21.77,1.42,2.41,1.58.32,5.98-2.49,5.49-4.22-2.21-2.83-7.02.49-8.51-.5-1.03-.68.42-3.06.55-4.5.05-.51.3-1.91-.52-1.77-.67,2.34-1.64,4.37-1.87,6.88-.11,1.24,1.26,3.46-.89,3.64-3.75.31-1-7.66-.26-9.79.69-1.98,1.98-3.78,2.75-5.75,5.61-2.94,10.68-8.45,16.09-11.39,1.16-.63,2.44-1.46,3.83-1.03,2.41.74-2.1,4.89-2.6,5.76-3.56,6.08-1.3,12.78-6.26,19.98ZM100.41,94.58c-.41-.41-6.8,3.8-6.92,4.29-.54,2.25,2.4,2.78,2.46,2.99.64,2.21-4.43,6.91-1.73,7.67,2.35.65,2.19-1.8,2.69-2.57,2.53-3.95,1.24-2.4,1.72-6.41.26-2.2,1.15-3.93,1.77-5.97Z"/>
    <path d="M123.4,65.1c-.26-.25-2.51.58-2-.74.55-1.42,1.8-2.53,3.26-1.26,1.6,1.39-1.43,11.23-1.3,13.71-.07.6-1.42,2.73-1.72,2.76-1.02.11-.34-1.45-.29-1.77.31-1.7,2.7-12.07,2.04-12.71Z"/>
    <path d="M83.44,143.53c-1.11-1.56,6.18-3.02,7.09-3.15.45-.06,1.95-.56,1.89.41-.07,1.23-7.81,4.37-8.98,2.74Z"/>
    <path d="M90.43,135.04c-.09,3.44-.29,5.52-4.49,4.99-.52-2.14.88-2.04,1.7-3.04s.21-2.47,2.79-1.95Z"/>
    <path d="M75.44,155.02c.43,3.42-.52,3.91-3.77,3.52-4.63-.56,1.7-4.03,3.77-3.52Z"/>
    <path d="M66.45,150.52l-3.49.5c-.49-3.34,3.56-4.11,3.49-.5Z"/>
    <path d="M87.39,158.48c-1.64,2.28-4.39-2.35-1.69-2.95,1.11-.25,2.26,2.16,1.69,2.95Z"/>
  </g>
</svg>