<?xml version="1.0" encoding="UTF-8"?>
<svg id="Layer_2" data-name="Layer 2" xmlns="http://www.w3.org/2000/svg" viewBox="0 0 927.72 686.02">
  <defs>
    <style>
      .cls-1 {
        fill: #2f00ff;
      }
    </style>
  </defs>
  <g id="Layer_1-2" data-name="Layer 1">
    <path class="cls-1" d="M.07,595c1.12-142.41,4.86-285.56,3.17-428.31-.25-21.09-3.33-45.93-1.59-66.69.11-1.33.83-6.55,1.54-7.1l28.92-7.6c2.14-2.88.36-28.06.95-33.98.79-7.88,3.88-7.8,10.69-8.94,31.72-5.31,64.01-11.37,96.5-12.65,56.91-2.24,114.06-1.68,170.14,8.09,48.86,8.51,96.94,21.65,144.15,36.45,10.44,3.27,26.56,10.67,36.1,12.58,8.06,1.62,6.32-1.7,10.69-5.82,13.68-12.88,41.19-27.72,58.64-35.19C618.43,20.84,679.87,3.02,744.06.64c39.99-1.49,81.3-.34,120.97,3.16,7.25.64,21.83-.41,27.61,2.23,7.38,3.38,3.56,6.27,3.37,12.27s.91,12.07.84,18.12c-.06,5.28-1.68,11.92-1.66,17.25.01,3.96,1.31,8.9,1.63,12.94h27.88c2.86,0,1.14,9.03,1.14,10.56-.66,190.9-2.13,382.5,1.64,573.14.11,5.72,1.31,16.21-2.99,20.07-7.58,6.8-22.49,2.55-31.96,2.31-67.6-1.72-134.92,6.15-202.66,5.56-63.23-.55-127-1.87-189.99,4.69-5.06.53-14.84,3.76-18.68,2.95-2.32-.48-5.98-2.71-9.04-3.52-21.33-5.64-46.98-1.35-68.84-.98-18.4.3-36.66-.54-55.03-.79-76.3-1-157.31-5.25-233.18-.81-33.26,1.95-67.89,7.35-101.33,4.73-5.44-.43-11.58-1.55-13.71-7.09.16-27.46-.22-54.97,0-82.44ZM892.03,598.83c.52-.44,1.6-11.71,1.69-13.61,2.77-57.33-1.29-117.65-.89-175.11.06-8.14,2.48-17.88,2.5-25.91.02-10.71-2.38-23.34-2.46-35.36-.38-58.41-1.6-117.3-2.29-175.86-.53-45.12-2.34-90.66-1.64-135.82.07-4.58,2.34-14.38-.39-18.39-1.13-1.66-13.92-5.03-16.54-5.45-23.71-3.73-49.77-3.75-73.7-4.04-74.35-.89-143.4,6.83-212.42,34.99-20.24,8.26-46.12,19.48-63.88,31.92-6.03,4.22-18.37,12.72-19.29,19.97-1.89,14.77-.15,29.88-.84,44.69-.32,6.89-2.07,14.46-2.42,21.13-1.97,37.15.06,77.01-.79,114.63-2.57,115.13-6.14,230.25-8.57,345.51-.27,12.59-2.32,26.63-.84,39.24.96,8.18,7.65,6.88,13.35,4.68,34.13-13.15,64.72-35.08,99.32-46.73,36.06-12.14,77.75-17.65,115.57-22.63,41.93-5.52,76.89-7.04,119.24-4.03,18.51,1.32,36.85,4.37,55.28,6.18ZM170.31,37.8c-36.66.86-77.04,3.26-113.08,10.21-7.49,1.44-14.87,1.15-16.12,9.79-1.59,10.97.9,28.49.61,40.65-.18,7.74-1.43,16.53-1.64,24.27-1.8,69.15-.63,138.98-.72,208.05-.13,105.87-.31,211.76.35,317.62l1.75,1.44c27.17-5.49,53.93-13.84,81.09-19.9,110.28-24.6,227.22-18.41,333.15,21.8,6.11,2.32,14.68,7.27,20.37,8.69,1.28.32,2.5.98,3.83.2.52-.37,1.47-10.11,1.55-11.81.81-16.13.22-32.59.72-48.74,3.68-118.76,10.69-238.38,10.21-357.16-.17-42.4,1.19-84.19,2.36-126.47.09-3.36,2.05-14.49.46-16.88-31.1-12.52-63.18-22.55-95.45-31.76-38-10.84-75.23-18.66-114.38-24.61-39.64-6.03-74.98-6.34-115.07-5.4ZM915.48,77.02c-1.79-2.07-16.42-.72-18.68.96-.8.6-.82,1.44-.81,2.33-.54,74.67.77,149.24.79,223.83,0,7.47.24,14.49,0,21.92-.59,17.92.04,35.99.2,54.2.43,48.16,1.86,96.38,3.01,144.43.34,14.13-.98,29.32-.06,43.25.55,8.32,5.48,30.15.72,36.77-3,4.18-13.67,3.84-18.39,3.66-8.63-.33-16.46-2.94-24.39-3.88-50.17-5.93-96.09-3.9-145.97.71-27.86,2.58-63.21,10.23-90.56,17.02-31.86,7.91-69.36,27.92-98.83,43.29-3.89,2.03-8.15,4.02-11.24,7.2,3.51-.1,7.08.18,10.59,0,17.94-.92,36.17-4.54,54.16-4.73,8.26-.09,17.03,1.57,25.12,1.64,6.56.05,12.67-1.38,18.89-1.6,50.32-1.74,101.18.9,151.55-.79,42.32-1.41,83.93-4.56,126.45-3.97,6.26.09,13.77,2.86,19.61-1.52l-.37-572.01c-.11-2.04-1.06-11.87-1.8-12.72ZM468.86,670.36c2.49-2.45-19.4-10.48-20.79-11-50.71-18.71-110.22-30.77-164.04-33.04-6.82-.29-14.9-2.68-22.04-3.09-44.01-2.51-95.75,5.33-138.64,15.33-27.13,6.33-55.31,16-82.43,21.22-2.52.48-7.94,2.27-9.84.4-2.82-2.77-.41-17.34-.34-21.58,3.16-178.41,2.51-356.89,2.35-535.51-.23-2.07-.23-5.38-2.77-5.87-5.23-1-18.27,1.91-19.86,7.64-2.06,7.44-1.08,22.94-1,31.26,1.42,133.9.72,267.91-.79,401.91,2.28,43.41-2.9,89.68,0,132.76.43,6.39,1.04,6.9,7.47,7.45,12.68,1.09,33.22-.09,46.39-.78,14.45-.76,29.44-3.06,43.95-3.95,56.66-3.47,114.68-4.71,171.14-3.12,29.04.82,58.27-.93,87.16,1.57,32.12-2.08,67.26,1.6,99.01-.78,1.74-.13,3.35-.67,5.07-.83Z"/>
  </g>
</svg>